<?xml version="1.0" encoding="UTF-8"?>
<svg id="Layer_1" xmlns="http://www.w3.org/2000/svg" version="1.1" viewBox="0 0 500 500">
  <!-- Generator: Adobe Illustrator 30.1.0, SVG Export Plug-In . SVG Version: 2.1.1 Build 136)  -->
  <defs>
    <style>
      .st0 {
        stroke: #5b00d1;
      }

      .st0, .st1 {
        fill: none;
        stroke-linecap: round;
        stroke-linejoin: round;
        stroke-width: 40px;
      }

      .st1 {
        stroke: #fff;
      }
    </style>
  </defs>
  <path class="st0" d="M58.19,391.21c-3.42-2.37-6.62-5.04-9.56-7.98-26.8-26.78-26.8-69.91-26.8-156.14s0-129.37,26.8-156.14c26.8-26.78,69.91-26.8,156.14-26.8h91.47c86.24,0,129.37,0,156.14,26.8,26.78,26.8,26.8,69.91,26.8,156.14s0,129.37-26.8,156.14c-2.96,2.97-6.14,5.63-9.56,7.98"/>
  <path class="st1" d="M174.73,362.6c-19.76,12.05-71.6,36.63-40.02,67.39,15.41,15.02,32.56,25.77,54.2,25.77h123.24c21.59,0,38.76-10.75,54.2-25.77,31.56-30.76-20.28-55.34-40.04-67.39-46.57-28.25-105-28.25-151.57,0M307.68,227.09c0,31.57-25.6,57.17-57.17,57.17s-57.17-25.6-57.17-57.17,25.6-57.17,57.17-57.17,57.17,25.6,57.17,57.17"/>
</svg>
